<svg width="24" height="24" viewBox="0 0 24 24" fill="none" xmlns="http://www.w3.org/2000/svg">
<path d="M6.10826 17.8928C6.10826 17.7508 6.1647 17.6145 6.26517 17.514C6.36563 17.4136 6.50189 17.3571 6.64397 17.3571H17.3583C17.5003 17.3571 17.6366 17.4136 17.7371 17.514C17.8375 17.6145 17.894 17.7508 17.894 17.8928C17.894 18.0349 17.8375 18.1712 17.7371 18.2716C17.6366 18.3721 17.5003 18.4286 17.3583 18.4286H6.64397C6.50189 18.4286 6.36563 18.3721 6.26517 18.2716C6.1647 18.1712 6.10826 18.0349 6.10826 17.8928ZM5.57254 5.57141H18.4297C18.4297 5.57141 20.5725 5.57141 20.5725 7.71427V14.1428C20.5725 14.1428 20.5725 16.2857 18.4297 16.2857H5.57254C5.57254 16.2857 3.42969 16.2857 3.42969 14.1428V7.71427C3.42969 7.71427 3.42969 5.57141 5.57254 5.57141Z" fill="#14110e"/>
</svg>
