<svg width="32" height="32" viewBox="0 0 32 32" fill="none" xmlns="http://www.w3.org/2000/svg">
<path fill-rule="evenodd" clip-rule="evenodd" d="M19.3333 3.33333C19.3333 3.24493 19.2982 3.16014 19.2357 3.09763C19.1732 3.03512 19.0884 3 19 3H9.66667C8.69421 3 7.76157 3.38631 7.07394 4.07394C6.38631 4.76158 6 5.69421 6 6.66667V25.3333C6 26.3058 6.38631 27.2384 7.07394 27.9261C7.76157 28.6137 8.69421 29 9.66667 29H23C23.9725 29 24.9051 28.6137 25.5927 27.9261C26.2804 27.2384 26.6667 26.3058 26.6667 25.3333V12.196C26.6667 12.1076 26.6315 12.0228 26.569 11.9603C26.5065 11.8978 26.4217 11.8627 26.3333 11.8627H20.3333C20.0681 11.8627 19.8138 11.7573 19.6262 11.5698C19.4387 11.3822 19.3333 11.1279 19.3333 10.8627V3.33333ZM20.3333 16.3333C20.5985 16.3333 20.8529 16.4387 21.0404 16.6262C21.228 16.8138 21.3333 17.0681 21.3333 17.3333C21.3333 17.5986 21.228 17.8529 21.0404 18.0404C20.8529 18.228 20.5985 18.3333 20.3333 18.3333H12.3333C12.0681 18.3333 11.8138 18.228 11.6262 18.0404C11.4387 17.8529 11.3333 17.5986 11.3333 17.3333C11.3333 17.0681 11.4387 16.8138 11.6262 16.6262C11.8138 16.4387 12.0681 16.3333 12.3333 16.3333H20.3333ZM20.3333 21.6667C20.5985 21.6667 20.8529 21.772 21.0404 21.9596C21.228 22.1471 21.3333 22.4015 21.3333 22.6667C21.3333 22.9319 21.228 23.1862 21.0404 23.3738C20.8529 23.5613 20.5985 23.6667 20.3333 23.6667H12.3333C12.0681 23.6667 11.8138 23.5613 11.6262 23.3738C11.4387 23.1862 11.3333 22.9319 11.3333 22.6667C11.3333 22.4015 11.4387 22.1471 11.6262 21.9596C11.8138 21.772 12.0681 21.6667 12.3333 21.6667H20.3333Z" fill="black"/>
<path d="M21 3.76495C21 3.51962 21.2573 3.36362 21.448 3.51695C21.6098 3.64762 21.7533 3.79962 21.8787 3.97295L25.896 9.56895C25.9867 9.69695 25.888 9.86228 25.7307 9.86228H21.3333C21.2449 9.86228 21.1601 9.82716 21.0976 9.76465C21.0351 9.70214 21 9.61736 21 9.52895V3.76495Z" fill="black"/>
</svg>
